# Blender 4.3.0
# www.blender.org
o Cube
v 0.850000 0.850000 -1.000000
v 0.850000 1.000000 -0.850000
v 1.000000 0.850000 -0.850000
v 0.850000 0.924902 -0.979961
v 0.924902 0.850000 -0.979961
v 0.921732 0.921732 -0.960495
v 0.924902 0.979961 -0.850000
v 0.850000 0.979961 -0.924902
v 0.921732 0.960495 -0.921732
v 0.979961 0.850000 -0.924902
v 0.979961 0.924902 -0.850000
v 0.960495 0.921732 -0.921732
v 0.850000 -1.000000 -0.850000
v 0.850000 -0.850000 -1.000000
v 1.000000 -0.850000 -0.850000
v 0.850000 -0.979961 -0.924902
v 0.924902 -0.979961 -0.850000
v 0.921732 -0.960495 -0.921732
v 0.924902 -0.850000 -0.979961
v 0.850000 -0.924902 -0.979961
v 0.921732 -0.921732 -0.960495
v 0.979961 -0.924902 -0.850000
v 0.979961 -0.850000 -0.924902
v 0.960495 -0.921732 -0.921732
v 1.000000 0.850000 0.850000
v 0.850000 1.000000 0.850000
v 0.850000 0.850000 1.000000
v 0.979961 0.924902 0.850000
v 0.979961 0.850000 0.924902
v 0.960495 0.921732 0.921732
v 0.850000 0.979961 0.924902
v 0.924902 0.979961 0.850000
v 0.921732 0.960495 0.921732
v 0.924902 0.850000 0.979961
v 0.850000 0.924902 0.979961
v 0.921732 0.921732 0.960495
v 1.000000 -0.850000 0.850000
v 0.850000 -0.850000 1.000000
v 0.850000 -1.000000 0.850000
v 0.979961 -0.850000 0.924902
v 0.979961 -0.924902 0.850000
v 0.960495 -0.921732 0.921732
v 0.850000 -0.924902 0.979961
v 0.924902 -0.850000 0.979961
v 0.921732 -0.921732 0.960495
v 0.924902 -0.979961 0.850000
v 0.850000 -0.979961 0.924902
v 0.921732 -0.960495 0.921732
v -0.850000 0.850000 -1.000000
v -1.000000 0.850000 -0.850000
v -0.850000 1.000000 -0.850000
v -0.924902 0.850000 -0.979961
v -0.850000 0.924902 -0.979961
v -0.921732 0.921732 -0.960495
v -0.979961 0.924902 -0.850000
v -0.979961 0.850000 -0.924902
v -0.960495 0.921732 -0.921732
v -0.850000 0.979961 -0.924902
v -0.924902 0.979961 -0.850000
v -0.921732 0.960495 -0.921732
v -1.000000 -0.850000 -0.850000
v -0.850000 -0.850000 -1.000000
v -0.850000 -1.000000 -0.850000
v -0.979961 -0.850000 -0.924902
v -0.979961 -0.924902 -0.850000
v -0.960495 -0.921732 -0.921732
v -0.850000 -0.924902 -0.979961
v -0.924902 -0.850000 -0.979961
v -0.921732 -0.921732 -0.960495
v -0.924902 -0.979961 -0.850000
v -0.850000 -0.979961 -0.924902
v -0.921732 -0.960495 -0.921732
v -1.000000 0.850000 0.850000
v -0.850000 0.850000 1.000000
v -0.850000 1.000000 0.850000
v -0.979961 0.850000 0.924902
v -0.979961 0.924902 0.850000
v -0.960495 0.921732 0.921732
v -0.850000 0.924902 0.979961
v -0.924902 0.850000 0.979961
v -0.921732 0.921732 0.960495
v -0.924902 0.979961 0.850000
v -0.850000 0.979961 0.924902
v -0.921732 0.960495 0.921732
v -0.850000 -1.000000 0.850000
v -0.850000 -0.850000 1.000000
v -1.000000 -0.850000 0.850000
v -0.850000 -0.979961 0.924902
v -0.924902 -0.979961 0.850000
v -0.921732 -0.960495 0.921732
v -0.924902 -0.850000 0.979961
v -0.850000 -0.924902 0.979961
v -0.921732 -0.921732 0.960495
v -0.979961 -0.924902 0.850000
v -0.979961 -0.850000 0.924902
v -0.960495 -0.921732 0.921732
vn 0.1296 0.1296 -0.9831
vn 0.1296 0.9831 -0.1296
vn 0.9831 0.1296 -0.1296
vn 0.1216 0.4915 -0.8623
vn 0.4915 0.1216 -0.8623
vn 0.4473 0.4473 -0.7744
vn 0.4915 0.8623 -0.1216
vn 0.1216 0.8623 -0.4915
vn 0.4473 0.7744 -0.4473
vn 0.8623 0.1216 -0.4915
vn 0.8623 0.4915 -0.1216
vn 0.7744 0.4473 -0.4473
vn 0.1296 -0.9831 -0.1296
vn 0.1296 -0.1296 -0.9831
vn 0.9831 -0.1296 -0.1296
vn 0.1216 -0.8623 -0.4915
vn 0.4915 -0.8623 -0.1216
vn 0.4473 -0.7744 -0.4473
vn 0.4915 -0.1216 -0.8623
vn 0.1216 -0.4915 -0.8623
vn 0.4473 -0.4473 -0.7744
vn 0.8623 -0.4915 -0.1216
vn 0.8623 -0.1216 -0.4915
vn 0.7744 -0.4473 -0.4473
vn 0.9831 0.1296 0.1296
vn 0.1296 0.9831 0.1296
vn 0.1296 0.1296 0.9831
vn 0.8623 0.4915 0.1216
vn 0.8623 0.1216 0.4915
vn 0.7744 0.4473 0.4473
vn 0.1216 0.8623 0.4915
vn 0.4915 0.8623 0.1216
vn 0.4473 0.7744 0.4473
vn 0.4915 0.1216 0.8623
vn 0.1216 0.4915 0.8623
vn 0.4473 0.4473 0.7744
vn 0.9831 -0.1296 0.1296
vn 0.1296 -0.1296 0.9831
vn 0.1296 -0.9831 0.1296
vn 0.8623 -0.1216 0.4915
vn 0.8623 -0.4915 0.1216
vn 0.7744 -0.4473 0.4473
vn 0.1216 -0.4915 0.8623
vn 0.4915 -0.1216 0.8623
vn 0.4473 -0.4473 0.7744
vn 0.4915 -0.8623 0.1216
vn 0.1216 -0.8623 0.4915
vn 0.4473 -0.7744 0.4473
vn -0.1296 0.1296 -0.9831
vn -0.9831 0.1296 -0.1296
vn -0.1296 0.9831 -0.1296
vn -0.4915 0.1216 -0.8623
vn -0.1216 0.4915 -0.8623
vn -0.4473 0.4473 -0.7744
vn -0.8623 0.4915 -0.1216
vn -0.8623 0.1216 -0.4915
vn -0.7744 0.4473 -0.4473
vn -0.1216 0.8623 -0.4915
vn -0.4915 0.8623 -0.1216
vn -0.4473 0.7744 -0.4473
vn -0.9831 -0.1296 -0.1296
vn -0.1296 -0.1296 -0.9831
vn -0.1296 -0.9831 -0.1296
vn -0.8623 -0.1216 -0.4915
vn -0.8623 -0.4915 -0.1216
vn -0.7744 -0.4473 -0.4473
vn -0.1216 -0.4915 -0.8623
vn -0.4915 -0.1216 -0.8623
vn -0.4473 -0.4473 -0.7744
vn -0.4915 -0.8623 -0.1216
vn -0.1216 -0.8623 -0.4915
vn -0.4473 -0.7744 -0.4473
vn -0.9831 0.1296 0.1296
vn -0.1296 0.1296 0.9831
vn -0.1296 0.9831 0.1296
vn -0.8623 0.1216 0.4915
vn -0.8623 0.4915 0.1216
vn -0.7744 0.4473 0.4473
vn -0.1216 0.4915 0.8623
vn -0.4915 0.1216 0.8623
vn -0.4473 0.4473 0.7744
vn -0.4915 0.8623 0.1216
vn -0.1216 0.8623 0.4915
vn -0.4473 0.7744 0.4473
vn -0.1296 -0.9831 0.1296
vn -0.1296 -0.1296 0.9831
vn -0.9831 -0.1296 0.1296
vn -0.1216 -0.8623 0.4915
vn -0.4915 -0.8623 0.1216
vn -0.4473 -0.7744 0.4473
vn -0.4915 -0.1216 0.8623
vn -0.1216 -0.4915 0.8623
vn -0.4473 -0.4473 0.7744
vn -0.8623 -0.4915 0.1216
vn -0.8623 -0.1216 0.4915
vn -0.7744 -0.4473 0.4473
vt 0.523438 0.523438
vt 0.531250 0.523438
vt 0.531250 0.531250
vt 0.523438 0.531250
vt 0.531250 0.507812
vt 0.539062 0.507812
vt 0.539062 0.515625
vt 0.531250 0.515625
vt 1.000000 0.000000
vt 1.000000 1.000000
vt 0.000000 1.000000
vt 0.000000 0.000000
vt 0.539062 0.523438
vt 0.546875 0.523438
vt 0.546875 0.531250
vt 0.539062 0.531250
vt 0.539062 0.539062
vt 0.531250 0.539062
s 1
f 63/1/63 13/2/13 39/3/39 85/4/85
f 87/5/87 73/6/73 50/7/50 61/8/61
f 38/9/38 27/10/27 74/11/74 86/12/86
f 2/13/2 51/14/51 75/15/75 26/16/26
f 15/2/15 3/13/3 25/16/25 37/3/37
f 1/13/1 4/13/4 6/13/6 5/13/5
f 4/13/4 8/13/8 9/13/9 6/13/6
f 2/13/2 7/13/7 9/13/9 8/13/8
f 7/13/7 11/13/11 12/13/12 9/13/9
f 3/13/3 10/13/10 12/13/12 11/13/11
f 10/13/10 5/13/5 6/13/6 12/13/12
f 6/13/6 9/13/9 12/13/12
f 13/2/13 16/2/16 18/2/18 17/2/17
f 16/2/16 20/2/20 21/2/21 18/2/18
f 14/2/14 19/2/19 21/2/21 20/2/20
f 19/2/19 23/2/23 24/2/24 21/2/21
f 15/2/15 22/2/22 24/2/24 23/2/23
f 22/2/22 17/2/17 18/2/18 24/2/24
f 18/2/18 21/2/21 24/2/24
f 25/16/25 28/16/28 30/16/30 29/16/29
f 28/16/28 32/16/32 33/16/33 30/16/30
f 26/16/26 31/16/31 33/16/33 32/16/32
f 31/16/31 35/16/35 36/16/36 33/16/33
f 27/16/27 34/16/34 36/16/36 35/16/35
f 34/16/34 29/16/29 30/16/30 36/16/36
f 30/16/30 33/16/33 36/16/36
f 37/3/37 40/3/40 42/3/42 41/3/41
f 40/3/40 44/3/44 45/3/45 42/3/42
f 38/3/38 43/3/43 45/3/45 44/3/44
f 43/3/43 47/3/47 48/3/48 45/3/45
f 39/3/39 46/3/46 48/3/48 47/3/47
f 46/3/46 41/3/41 42/3/42 48/3/48
f 42/3/42 45/3/45 48/3/48
f 49/7/49 52/7/52 54/7/54 53/7/53
f 52/7/52 56/7/56 57/7/57 54/7/54
f 50/7/50 55/7/55 57/7/57 56/7/56
f 55/7/55 59/7/59 60/7/60 57/7/57
f 51/14/51 58/14/58 60/14/60 59/14/59
f 58/7/58 53/7/53 54/7/54 60/7/60
f 54/7/54 57/7/57 60/7/60
f 61/8/61 64/8/64 66/8/66 65/8/65
f 64/8/64 68/8/68 69/8/69 66/8/66
f 62/8/62 67/8/67 69/8/69 68/8/68
f 67/1/67 71/1/71 72/1/72 69/1/69
f 63/1/63 70/1/70 72/1/72 71/1/71
f 70/1/70 65/1/65 66/1/66 72/1/72
f 66/1/66 69/1/69 72/1/72
f 73/6/73 76/6/76 78/6/78 77/6/77
f 76/6/76 80/6/80 81/6/81 78/6/78
f 74/17/74 79/17/79 81/17/81 80/17/80
f 79/17/79 83/17/83 84/17/84 81/17/81
f 75/15/75 82/15/82 84/15/84 83/15/83
f 82/6/82 77/6/77 78/6/78 84/6/84
f 78/6/78 81/6/81 84/6/84
f 85/4/85 88/4/88 90/4/90 89/4/89
f 88/4/88 92/4/92 93/4/93 90/4/90
f 86/18/86 91/18/91 93/18/93 92/18/92
f 91/5/91 95/5/95 96/5/96 93/5/93
f 87/5/87 94/5/94 96/5/96 95/5/95
f 94/4/94 89/4/89 90/4/90 96/4/96
f 90/4/90 93/4/93 96/4/96
f 63/1/63 85/4/85 89/4/89 70/1/70
f 70/1/70 89/4/89 94/4/94 65/1/65
f 65/8/65 94/5/94 87/5/87 61/8/61
f 13/2/13 63/1/63 71/1/71 16/2/16
f 16/2/16 71/1/71 67/1/67 20/2/20
f 20/2/20 67/8/67 62/8/62 14/2/14
f 3/13/3 15/2/15 23/2/23 10/13/10
f 10/13/10 23/2/23 19/2/19 5/13/5
f 5/13/5 19/2/19 14/2/14 1/13/1
f 86/18/86 74/17/74 80/17/80 91/18/91
f 91/5/91 80/6/80 76/6/76 95/5/95
f 95/5/95 76/6/76 73/6/73 87/5/87
f 27/16/27 38/3/38 44/3/44 34/16/34
f 34/16/34 44/3/44 40/3/40 29/16/29
f 29/16/29 40/3/40 37/3/37 25/16/25
f 49/7/49 62/8/62 68/8/68 52/7/52
f 52/7/52 68/8/68 64/8/64 56/7/56
f 56/7/56 64/8/64 61/8/61 50/7/50
f 26/16/26 75/15/75 83/15/83 31/16/31
f 31/16/31 83/17/83 79/17/79 35/16/35
f 35/16/35 79/17/79 74/17/74 27/16/27
f 2/13/2 26/16/26 32/16/32 7/13/7
f 7/13/7 32/16/32 28/16/28 11/13/11
f 11/13/11 28/16/28 25/16/25 3/13/3
f 85/4/85 39/3/39 47/3/47 88/4/88
f 88/4/88 47/3/47 43/3/43 92/4/92
f 92/18/92 43/3/43 38/3/38 86/18/86
f 75/15/75 51/14/51 59/14/59 82/15/82
f 82/6/82 59/7/59 55/7/55 77/6/77
f 77/6/77 55/7/55 50/7/50 73/6/73
f 51/14/51 2/13/2 8/13/8 58/14/58
f 58/7/58 8/13/8 4/13/4 53/7/53
f 53/7/53 4/13/4 1/13/1 49/7/49
f 39/3/39 13/2/13 17/2/17 46/3/46
f 46/3/46 17/2/17 22/2/22 41/3/41
f 41/3/41 22/2/22 15/2/15 37/3/37
f 62/8/62 49/7/49 1/13/1 14/2/14
